<?xml version="1.0" encoding="utf-8"?>
<!-- Generator: Adobe Illustrator 23.1.0, SVG Export Plug-In . SVG Version: 6.00 Build 0)  -->
<svg version="1.1" id="Layer_1" xmlns="http://www.w3.org/2000/svg" xmlns:xlink="http://www.w3.org/1999/xlink" x="0px" y="0px"
	 viewBox="0 0 841.9 595.3" style="enable-background:new 0 0 841.9 595.3;" xml:space="preserve">
<style type="text/css">
	.st0{fill:#80C895;}
	.st1{fill:#D1DD39;}
	.st2{fill:#EDCF39;}
	.st3{fill:#FFFFFF;}
	.st4{fill:none;}
</style>
<g>
	<path class="st0" d="M484.4,299.3c0-0.7-0.3-1.6-0.8-2.1c-6.5-7.9-13.1-15.7-19.6-23.5c-0.8-0.9-1.6-1.3-2.8-1.3
		c-26.9,0-53.8,0-80.6,0c-1.3,0-2.1,0.4-3,1.4c-6.4,7.8-12.9,15.5-19.3,23.3c-0.5,0.6-0.9,1.6-0.9,2.4c0,19.1,0,38.2,0,57.3
		c0,2.3,0.2,2.4,2.4,2.4h122.4c1.9,0,2.1-0.3,2.1-2.1C484.5,337.9,484.5,318.6,484.4,299.3z M461.2,275.3c0.3,0,0.7,0.3,0.9,0.5
		c5.8,7,11.7,13.9,17.5,20.9c0.1,0.1,0.2,0.3,0.3,0.5c-0.5,0-0.8,0.1-1.2,0.1c-6.5,0-13,0-19.5,0c-1,0-1.4-0.2-1.8-1.2
		c-2.5-6.6-5.1-13.1-7.7-19.7c-0.1-0.4-0.2-0.7-0.4-1.2C453.4,275.3,457.3,275.2,461.2,275.3z M422.4,276.6c0-0.4,0-0.9,0.1-1.3
		h23.8c2.8,7.2,5.6,14.5,8.5,21.9c-0.6,0-1.1,0.1-1.5,0.1c-9.8,0-19.6,0-29.4,0c-1.2,0-1.5-0.3-1.5-1.5
		C422.4,289.4,422.4,283,422.4,276.6z M396.4,275.2c7.6,0,15.1,0,22.7,0c0.1,0,0.2,0,0.3,0.1v21.8h-32.3c1.1-2.7,2-5.1,3-7.6
		c1.7-4.4,3.5-8.9,5.2-13.3C395.5,275.7,395.7,275.2,396.4,275.2z M362.8,296.1c5.6-6.7,11.2-13.4,16.8-20.1c0.3-0.3,0.7-0.7,1-0.7
		c4,0,7.9,0,12,0c-1.1,2.9-2.2,5.6-3.3,8.3c-1.6,4.2-3.3,8.4-4.9,12.6c-0.2,0.6-0.4,1-1.2,1c-6.9,0-13.8,0-20.7,0
		c-0.1,0-0.2-0.1-0.5-0.1C362.3,296.7,362.6,296.4,362.8,296.1z M372.8,327.6c-0.1-0.8,0.5-1.3,1.3-1.2c0.5,0.1,0.9,0.6,1.4,0.9
		c0,0.2,0,0.4,0,0.5c-0.5,0.3-1,0.9-1.5,0.9C373.5,328.8,372.9,328,372.8,327.6z M397.4,328.8c-0.5-0.1-1.1-0.8-1.1-1.2
		c0-0.5,0.6-1,1-1.4c0.2,0,0.4,0,0.6,0c0.3,0.5,0.8,0.9,0.8,1.4C398.8,328.4,398.2,329,397.4,328.8z M469.1,327.6
		c-0.1,0.5-0.6,0.9-0.9,1.4h-0.5c-0.3-0.5-0.9-1-0.9-1.5c0-0.4,0.7-1,1.2-1.1C468.7,326.2,469.2,326.8,469.1,327.6z M480.2,356.5
		c-3.1-0.1-6.3,0-9.4,0c-0.4,0-0.8,0-1.4,0c0-0.7,0-1.3,0-1.9c0-0.7,0.2-0.9,0.9-1.1c4.2-1.2,6.9-4.3,7.3-8.5
		c0.2-1.7-0.5-2.4-2.2-2.2c-2.2,0.2-4.1,1.1-5.9,2.7v-2.8c0.3-0.1,0.7-0.2,1-0.3c4-1.1,6.9-4.6,7.2-8.7c0.1-1.4-0.5-2-1.9-2
		c-1.9,0-3,0.5-6.4,2.5c0-1.4-0.3-2.6,1.2-3.7c1.9-1.3,1.9-4.3,0.3-5.9c-1.6-1.6-4.3-1.6-5.9,0c-1.7,1.7-1.6,4.4,0.2,6
		c1.5,1.3,1.5,1.3,1.3,3.7c-0.4-0.3-0.8-0.6-1.2-0.8c-1.6-0.6-3.2-1.4-4.9-1.8c-1.7-0.3-2.2,0.4-2.1,2.2c0.3,3.8,3.2,7.3,7,8.4
		c0.4,0.1,0.8,0.2,1.2,0.3v2.7c-0.4-0.3-0.7-0.5-1-0.7c-1.5-1.2-3.3-1.8-5.2-2c-1.5-0.1-2.1,0.4-2,1.9c0.1,3.8,2.8,7.5,6.6,8.6
		c1.5,0.4,1.9,1.1,1.7,2.5c0,0.2,0,0.4,0,0.8h-11.7v0.1h-22.2v0c-0.2,0-0.4,0-0.6,0c-1.1,0-1.4-0.3-1.4-1.4c0.1-5.7,0-11.5,0-17.2
		c0-1.9-0.3-2.1-2.2-2.1c-5,0-10,0-15,0c-1.8,0-2.1,0.3-2.1,2.1c0,5.7,0,11.5,0,17.2c0,1-0.2,1.4-1.3,1.4c-3.6-0.1-7.2,0-11,0
		c0-0.4-0.1-0.6-0.1-0.8c-0.2-1.3,0.1-2.1,1.6-2.5c3.8-1.1,6.4-4.7,6.6-8.5c0.1-1.4-0.6-2-1.9-1.9c-2,0.1-3.6,0.7-6.2,2.6v-2.6
		c0.3-0.1,0.7-0.2,1-0.3c4-1.1,6.9-4.6,7.1-8.7c0.1-1.4-0.5-2-1.9-1.9c-2.1,0.1-3.6,0.7-6.1,2.5c-0.6-1.6-0.4-2.4,0.9-3.4
		c1.8-1.5,2.1-4.2,0.5-6c-1.6-1.8-4.4-1.9-6.1-0.1c-1.7,1.7-1.5,4.4,0.3,6c1.5,1.3,1.5,1.3,1.2,3.3c-1.5-0.7-3.1-1.6-4.7-2.1
		c-3-0.9-3.9,0.1-3.2,3.2c0.9,3.7,3.2,6.1,6.8,7.3c0.3,0.1,0.6,0.2,0.9,0.2c0.1,0,0.2,0.1,0.3,0.1v2.7c-1.8-1.5-3.6-2.5-5.8-2.7
		c-1.9-0.2-2.6,0.4-2.4,2.3c0.5,4,2.7,6.9,6.6,8.1c1.4,0.5,1.9,1,1.7,2.4c-0.1,0.2-0.1,0.5-0.1,0.8h-20.5v-2.7
		c0.5-0.1,1-0.3,1.6-0.5c3.8-1.2,6.5-4.8,6.6-8.6c0-1.5-0.6-2.1-2.1-2c-2.3,0.2-4.2,1.1-6,2.7v-2.7c0.3-0.1,0.7-0.2,1.1-0.3
		c3.8-1.1,6.7-4.5,7-8.4c0.1-1.8-0.4-2.3-2.2-2.3c-2.3,0.1-4.2,1.2-6.1,2.7c0.1-1.5-0.3-2.8,1.3-3.8c2-1.3,2-4.2,0.3-5.9
		c-1.6-1.7-4.3-1.7-5.9-0.1c-1.7,1.6-1.8,4.6,0.2,5.9c1.5,1,1.3,2.3,1.3,3.5c-1.6-0.7-3.1-1.6-4.8-2.1c-3-0.8-3.9,0.1-3.2,3.1
		c0.8,3.7,3.1,6.1,6.8,7.3c0.4,0.1,0.8,0.2,1.2,0.3v2.7c-1.7-1.4-3.6-2.4-5.7-2.6c-2-0.2-2.7,0.4-2.4,2.4c0.6,4,2.8,6.8,6.7,8.1
		c1.3,0.4,1.8,0.9,1.5,2.2c-0.1,0.3,0,0.6-0.1,1c-0.3,0-0.7,0.1-1,0.1c-3.4,0-6.7,0-10.1,0c-0.9,0-1.2-0.2-1.2-1.1
		c0-18.1,0-36.3,0-54.4c0-0.3,0-0.6,0.1-0.9h23.8c0.3,0,0.6,0,1,0h2.1c8.6,0,17.1,0,25.7,0c0.2,0,0.4,0,0.6,0h15.2
		c0.1,0,0.2,0,0.3,0c2.1,0,4.3,0,6.5,0l30.3,0.1h16.1v1.4c0,17.8,0,35.6,0,53.4C481.7,356.2,481.5,356.6,480.2,356.5z M469.7,350.5
		c0.7-2.4,2.5-4.2,4.4-4.4C474,348,472.2,349.8,469.7,350.5z M469.7,339.5c0.8-2.4,2.3-3.8,4.5-4.6
		C473.9,337,472.1,338.9,469.7,339.5z M466,339.6c-2.4-0.8-3.8-2.3-4.6-4.6C463.6,335.3,465.5,337.2,466,339.6z M466,350.4
		c-2-0.2-3.9-2.1-4.5-4.3C463.5,346.3,465.4,348.2,466,350.4z M399.5,350.6c0.1-2,2-4,4.5-4.5C403.1,348.4,401.6,349.8,399.5,350.6z
		 M399.5,339.4c0.2-1.9,1.9-3.7,4.3-4.5C403.5,337.1,401.6,338.9,399.5,339.4z M395.5,339.4c-2.2-0.4-4.2-2.5-4.3-4.4
		C393.4,335.6,395.2,337.4,395.5,339.4z M395.6,350.6c-2.3-0.8-3.8-2.3-4.6-4.5C393,346.2,395.1,348.2,395.6,350.6z M375.8,350.7
		c0.8-2.5,2.3-4,4.8-4.8C379.7,348.3,378.3,349.8,375.8,350.7z M375.9,339.6c0.4-2.3,2.3-4.2,4.6-4.6
		C379.7,337.3,378.3,338.7,375.9,339.6z M372.2,339.3c-1.9,0-4.1-2.1-4.5-4.5C370,335.7,371.4,337.1,372.2,339.3z M372.1,350.6
		c-2.3-0.8-3.8-2.2-4.6-4.4C369.6,346.3,371.5,348.2,372.1,350.6z"/>
	<g>
		<path class="st1" d="M421,254c-3.5,0-6.4-2.8-6.4-6.3c0-3.5,2.9-6.4,6.4-6.4c3.5,0,6.3,2.9,6.3,6.3C427.3,251.1,424.5,254,421,254
			z"/>
		<g>
			<path class="st2" d="M409.3,246.6c1,0,2,0,3,0c0,0.6,0,1.3,0,2c-1,0-2,0-3,0C409.3,248,409.3,247.3,409.3,246.6z"/>
			<path class="st2" d="M429.5,248.6c0-0.7,0-1.3,0-2c1,0,2,0,3.1,0c0,0.6,0,1.3,0,2C431.6,248.6,430.6,248.6,429.5,248.6z"/>
			<path class="st2" d="M414.3,253.1c0.4,0.4,0.8,0.8,1.3,1.3c-0.7,0.7-1.4,1.4-2.2,2.1c-0.4-0.5-0.8-1-1.2-1.6
				C412.8,254.5,413.5,253.8,414.3,253.1z"/>
			<path class="st2" d="M429.8,255.1c-0.4,0.5-0.9,1-1.3,1.4c-0.7-0.8-1.4-1.5-2.1-2.3c0.4-0.4,0.9-0.8,1.3-1.2
				C428.4,253.7,429.1,254.4,429.8,255.1z"/>
			<path class="st2" d="M414.1,242.2c-0.7-0.7-1.4-1.4-2.1-2.1c0.4-0.4,0.9-0.9,1.4-1.3c0.7,0.7,1.4,1.4,2.1,2.1
				C415.1,241.4,414.6,241.8,414.1,242.2z"/>
			<path class="st2" d="M426.4,240.8c0.7-0.7,1.4-1.4,2.1-2.1c0.4,0.5,0.8,1,1.3,1.5c-0.7,0.6-1.4,1.3-2.2,1.9
				C427.3,241.8,426.9,241.3,426.4,240.8z"/>
			<path class="st2" d="M420,239.1c0-1.1,0-2.1,0-3c0.7,0,1.3,0,2,0c0,1,0,2,0,3C421.2,239.1,420.6,239.1,420,239.1z"/>
			<path class="st2" d="M420,256.2c0.7,0,1.3,0,2,0c0,1,0,2,0,3c-0.6,0-1.3,0-2,0C420,258.2,420,257.2,420,256.2z"/>
		</g>
	</g>
	<path class="st3" d="M422.4,275.3c8,0,15.9,0,23.8,0c2.8,7.2,5.6,14.5,8.5,21.9c-0.6,0-1.1,0.1-1.5,0.1c-9.8,0-19.6-0.1-29.4,0
		c-1.2,0-1.5-0.3-1.5-1.5c0.1-6.4,0-12.7,0-19.1C422.4,276.2,422.4,275.8,422.4,275.3z"/>
	<path class="st3" d="M387.2,297.2c1-2.7,2-5.2,3-7.6c1.7-4.4,3.5-8.9,5.2-13.3c0.2-0.5,0.3-1,1.1-1c7.6,0,15.1,0,22.7,0
		c0.1,0,0.2,0,0.3,0.1c0,7.2,0,14.5,0,21.8C408.7,297.2,398.1,297.2,387.2,297.2z"/>
	<path class="st3" d="M479.9,297.3c-0.5,0-0.8,0.1-1.2,0.1c-6.5,0-13,0-19.5,0c-1,0-1.4-0.2-1.8-1.2c-2.5-6.6-5.1-13.1-7.7-19.7
		c-0.1-0.4-0.2-0.7-0.4-1.2c4,0,7.9,0,11.9,0c0.3,0,0.7,0.3,0.9,0.5c5.8,7,11.7,13.9,17.5,20.9C479.7,296.8,479.8,297,479.9,297.3z"
		/>
	<path class="st3" d="M392.6,275.3c-1.1,2.9-2.2,5.6-3.2,8.3c-1.6,4.2-3.3,8.4-4.9,12.6c-0.2,0.6-0.4,1-1.2,1c-6.9,0-13.8,0-20.7,0
		c-0.1,0-0.2-0.1-0.5-0.1c0.3-0.4,0.5-0.7,0.7-0.9c5.6-6.7,11.2-13.4,16.8-20.1c0.3-0.3,0.6-0.7,1-0.7
		C384.5,275.2,388.5,275.3,392.6,275.3z"/>
	<path class="st3" d="M372.1,350.6c-2.3-0.8-3.8-2.2-4.6-4.4C369.6,346.3,371.6,348.2,372.1,350.6z"/>
	<path class="st3" d="M403.9,346c-0.8,2.4-2.3,3.8-4.5,4.5C399.6,348.6,401.5,346.5,403.9,346z"/>
	<path class="st3" d="M367.7,334.9c2.3,0.8,3.8,2.3,4.5,4.4C370.3,339.3,368.1,337.2,367.7,334.9z"/>
	<path class="st3" d="M375.9,339.6c0.4-2.3,2.3-4.2,4.6-4.6C379.7,337.3,378.3,338.7,375.9,339.6z"/>
	<path class="st3" d="M403.8,335c-0.3,2.1-2.2,4-4.3,4.5C399.7,337.5,401.4,335.7,403.8,335z"/>
	<path class="st3" d="M438.1,334.9c2.3,0.8,3.7,2.2,4.5,4.5C440.6,339.2,438.4,337.1,438.1,334.9z"/>
	<path class="st3" d="M450.9,335c-0.8,2.3-2.2,3.7-4.5,4.5C446.5,337.5,448.6,335.4,450.9,335z"/>
	<path class="st3" d="M395.6,350.6c-2.3-0.8-3.8-2.3-4.6-4.5C393,346.2,395.1,348.2,395.6,350.6z"/>
	<path class="st3" d="M450.9,346.1c-0.8,2.3-2.2,3.7-4.5,4.5C446.7,348.4,448.7,346.3,450.9,346.1z"/>
	<path class="st3" d="M391.2,335c2.2,0.6,4,2.4,4.3,4.4C393.3,339,391.3,336.9,391.2,335z"/>
	<path class="st3" d="M375.8,350.7c0.8-2.5,2.3-4,4.8-4.8C379.7,348.3,378.3,349.8,375.8,350.7z"/>
	<path class="st3" d="M438.1,345.9c2.4,0.8,3.8,2.3,4.5,4.5C440.7,350.3,438.6,348.4,438.1,345.9z"/>
	<path class="st3" d="M375.5,327.9c-0.5,0.3-1,0.9-1.5,0.9c-0.4,0-1-0.7-1.1-1.2c-0.2-0.8,0.5-1.3,1.3-1.2c0.5,0.1,0.9,0.6,1.4,1
		C375.5,327.5,375.5,327.7,375.5,327.9z"/>
	<path class="st3" d="M397.8,326.2c0.3,0.5,0.8,0.9,0.8,1.4c0.1,0.8-0.5,1.4-1.2,1.2c-0.5-0.1-1.1-0.8-1.2-1.2c0-0.5,0.6-1,1-1.4
		C397.4,326.1,397.6,326.2,397.8,326.2z"/>
	<path class="st3" d="M444.7,326.1c0.4,0.5,1,1,1,1.4c0,0.4-0.7,1.1-1.1,1.2c-0.7,0.2-1.4-0.4-1.2-1.2c0.1-0.5,0.5-1,0.8-1.4
		C444.3,326.2,444.5,326.1,444.7,326.1z"/>
	<path d="M380.7,300.1"/>
	<path class="st0" d="M445.9,356.4v-2.6c0.3-0.1,0.5-0.2,0.8-0.3c4.1-1.2,6.5-3.8,7.3-8c0.4-2.3-0.3-3.2-2.6-2.6
		c-1.9,0.5-3.7,1.4-5.5,2.1v-2c1.4-0.6,2.8-1.1,4-1.9c2.6-1.7,4-4.2,4.2-7.3c0.1-1.5-0.4-2-1.9-1.9c-2.4,0.1-4.4,1.1-6.3,2.7
		c0-1.5-0.4-2.7,1.2-3.8c2-1.3,2-4.2,0.4-5.9c-1.6-1.7-4.3-1.8-5.9-0.2c-1.7,1.6-1.7,4.4,0.1,6c1.5,1.4,1.5,1.4,1.3,3.7
		c-0.4-0.3-0.7-0.5-1.1-0.7c-1.6-1.1-3.3-1.8-5.3-1.9c-1.3,0-1.9,0.6-1.8,1.9c0.2,4,3,7.6,6.9,8.8c0.4,0.1,0.8,0.2,1.3,0.4v2.6
		c-0.3-0.2-0.6-0.4-0.8-0.6c-1.6-1.2-3.4-1.9-5.4-2c-1.4-0.1-2.1,0.6-2,2c0.4,4,2.5,6.9,6.3,8.4c2.1,0.9,2.1,0.8,1.9,3.3
		c-0.3,0-0.6,0.1-1,0.1c-3.1,0-6.3,0-9.4,0v0h22.2v-0.1H445.9z M450.9,346.1c-0.8,2.3-2.2,3.8-4.5,4.5
		C446.7,348.4,448.7,346.3,450.9,346.1z M450.9,335c-0.8,2.3-2.2,3.7-4.5,4.5C446.5,337.5,448.6,335.4,450.9,335z M438.1,334.9
		c2.3,0.8,3.7,2.2,4.5,4.5C440.6,339.2,438.4,337.1,438.1,334.9z M438.1,345.9c2.4,0.8,3.8,2.3,4.5,4.5
		C440.7,350.3,438.6,348.4,438.1,345.9z M444.5,328.8c-0.7,0.2-1.4-0.4-1.3-1.2c0.1-0.5,0.5-1,0.8-1.4c0.2,0,0.4,0,0.6,0
		c0.4,0.5,1,1,1,1.4C445.6,328,445,328.7,444.5,328.8z"/>
	<path class="st4" d="M438.1,334.9c2.3,0.8,3.7,2.2,4.5,4.5C440.6,339.2,438.4,337.1,438.1,334.9z"/>
	<path class="st4" d="M442.6,350.4c-1.9-0.1-4-2-4.5-4.5C440.5,346.7,441.9,348.2,442.6,350.4z"/>
	<path class="st4" d="M444.7,326.1c0.4,0.5,1,1,1,1.4c0,0.4-0.7,1.1-1.2,1.2c-0.7,0.2-1.4-0.4-1.3-1.2c0.1-0.5,0.5-1,0.8-1.4
		C444.3,326.2,444.5,326.1,444.7,326.1z"/>
	<path class="st4" d="M450.9,346.1c-0.8,2.3-2.2,3.8-4.5,4.5C446.7,348.4,448.7,346.3,450.9,346.1z"/>
	<path class="st4" d="M446.4,339.5c0.1-2,2.2-4.2,4.5-4.5C450.1,337.3,448.7,338.7,446.4,339.5z"/>
</g>
</svg>
